<svg width="181" height="31" viewBox="0 0 181 31" xmlns="http://www.w3.org/2000/svg"><title>Group</title><defs><filter x="-4%" y="-21.7%" width="108.1%" height="160.9%" filterUnits="objectBoundingBox" id="a"><feOffset dy="2" in="SourceAlpha" result="shadowOffsetOuter1"/><feGaussianBlur stdDeviation="2" in="shadowOffsetOuter1" result="shadowBlurOuter1"/><feColorMatrix values="0 0 0 0 0 0 0 0 0 0 0 0 0 0 0 0 0 0 0.5 0" in="shadowBlurOuter1" result="shadowMatrixOuter1"/><feMerge><feMergeNode in="shadowMatrixOuter1"/><feMergeNode in="SourceGraphic"/></feMerge></filter></defs><g filter="url(#a)" transform="translate(4 2.492)" fill="#FFFFFE" fill-rule="evenodd"><path d="M57.737 12.746V0h8.247L66 13.114l-.068.963c0 3.294-6.675 8.38-15.824 8.38-9.15 0-16.031-4.992-16.108-8.048V0h7.964v13.6c.128 2.17-.393 6.858 8.177 6.858 4.652 0 7.511-1.695 7.596-6.858v-.854m19.226 8.814L77 0h-7.981L69 21.56h7.963M77 7.572L93.489 0h5.432L85.469 6.028 103 21.559H92.34L78.68 9.261l-1.68.85"/><path d="M109.228 10.146h18.736l2.332-2.554-20.151.018-1.563-.011c1.18-2.975 5.431-4.88 8.188-4.65l1.844-.012 11.665-.003L133 .004 114.324 0l-2.966.028C104.633.033 100 5.01 100 10.862c0 5.852 6.113 10.565 12.815 10.659l4.352.038 12.757-.004 2.846-2.96-14.454-.005-.94.005c-4.324.301-8.964-3.37-8.964-7.85 0-.208.008-.414-.074-.606l.89.007M134 0h7.53L158 17.331V0h8v21.56h-8L141.53 3.804v17.754H134V0M24.475 8.085L32 0H2.84L0 2.979h17.975l-4.788 5.106h11.288M170.5.214c-1.247 0-2.261.911-2.261 2.032 0 1.12 1.014 2.03 2.261 2.03s2.261-.91 2.261-2.03c0-1.12-1.014-2.032-2.261-2.032m0 4.278c-1.378 0-2.5-1.008-2.5-2.246C168 1.007 169.122 0 170.5 0s2.5 1.007 2.5 2.246c0 1.238-1.122 2.246-2.5 2.246"/><path d="M169.451 2.086h.97c.206 0 .367-.017.483-.05a.51.51 0 0 0 .263-.162.375.375 0 0 0 .09-.241.371.371 0 0 0-.175-.314c-.115-.082-.3-.123-.552-.123h-1.079v.89zM169 3.593V.898h1.512c.303 0 .535.025.692.073a.736.736 0 0 1 .38.256.649.649 0 0 1 .141.407c0 .19-.078.352-.234.483-.157.132-.399.215-.726.25.12.046.21.09.272.134.132.096.256.216.373.359l.59.733h-.563l-.45-.56a5.425 5.425 0 0 0-.326-.371.96.96 0 0 0-.23-.18.769.769 0 0 0-.205-.072 1.663 1.663 0 0 0-.251-.013h-.524v1.196H169zM14.801 19.498l7.438-8.718H11.083L1 22.458h27.89l3.11-2.96H14.801"/></g></svg>